<svg width="25" height="25" viewBox="0 0 25 25" fill="none" xmlns="http://www.w3.org/2000/svg">
<path d="M8.13477 17.2526V6.84897C8.13477 6.05564 9.00843 5.57362 9.68126 6.00543L17.8556 11.2073C17.9987 11.2978 18.1165 11.4231 18.1982 11.5715C18.2799 11.7198 18.3227 11.8865 18.3227 12.0558C18.3227 12.2252 18.2799 12.3918 18.1982 12.5402C18.1165 12.6885 17.9987 12.8138 17.8556 12.9044L9.68126 18.0962C9.52979 18.1941 9.35469 18.2494 9.17443 18.2561C8.99416 18.2629 8.81542 18.2208 8.65706 18.1345C8.4987 18.0481 8.36659 17.9206 8.27466 17.7654C8.18274 17.6101 8.13441 17.433 8.13477 17.2526Z" fill="#ECD5AC"/>
</svg>
