<svg width="25" height="25" viewBox="0 0 25 25" fill="none" xmlns="http://www.w3.org/2000/svg">
<path d="M16.0674 6.84846L16.0674 17.2521C16.0674 18.0454 15.1937 18.5275 14.5209 18.0956L6.3466 12.8938C6.20348 12.8033 6.0856 12.678 6.00392 12.5296C5.92224 12.3812 5.8794 12.2146 5.8794 12.0453C5.8794 11.8759 5.92224 11.7093 6.00392 11.5609C6.0856 11.4126 6.20348 11.2873 6.3466 11.1967L14.5209 6.00492C14.6724 5.90695 14.8475 5.85168 15.0277 5.84494C15.208 5.8382 15.3867 5.88023 15.5451 5.96661C15.7034 6.05299 15.8356 6.18051 15.9275 6.33572C16.0194 6.49093 16.0677 6.66807 16.0674 6.84846Z" fill="#ECD5AC"/>
</svg>
