<svg width="1551" height="835" viewBox="0 0 1551 835" fill="none" xmlns="http://www.w3.org/2000/svg">
<g clip-path="url(#clip0_141_18)">
<g clip-path="url(#clip1_141_18)">
<path d="M187.642 507.629L189.007 459.855L300.933 459.855L300.933 402.527L411.495 403.892L411.495 461.22H526.151V510.359H496.122L497.487 552.672L527.516 552.672L526.151 578.607L526.151 668.694L445.619 667.329L444.254 578.607L388.291 577.242L388.291 664.599L326.867 663.234L328.232 577.242L270.904 577.242V664.599H189.007L189.007 577.242L189.007 574.512L189.007 549.942L217.671 551.307L217.671 507.629L187.642 507.629Z" fill="white"/>
<path d="M1338.31 500.802C1376.53 511.721 1418.84 502.167 1450.23 470.773C1495.28 425.729 1493.91 353.386 1448.87 308.343C1418.84 278.313 1375.16 267.394 1338.31 276.948C1344.64 252.424 1344.44 226.671 1337.73 202.247C1331.03 177.823 1318.05 155.578 1300.09 137.723C1242.76 80.3945 1152.67 80.3945 1096.71 136.358C1040.75 192.321 1042.11 283.773 1098.07 339.737C1103.53 345.196 1107.63 349.291 1113.09 352.021L1084.42 350.656L1053.03 319.262L1023 349.291L1006.62 349.291V343.831C1006.62 330.182 994.337 317.897 980.687 317.897L977.957 317.897C964.308 317.897 953.388 328.817 953.388 342.466L953.388 347.926L195.836 346.561L195.836 360.211L176.727 360.211C171.267 346.561 158.983 334.277 145.333 334.277C126.224 334.277 111.209 354.751 111.209 379.32C111.209 403.89 127.589 425.729 146.698 425.729C160.348 425.729 171.267 414.809 178.092 399.795L197.201 399.795V413.444L952.023 417.539V422.999C952.023 436.649 964.308 448.933 977.957 448.933L980.687 448.933C994.337 448.933 1005.26 438.014 1005.26 424.364L1005.26 418.904L1021.64 418.904L1053.03 450.298L1083.06 420.269L1111.72 421.634C1107.63 425.729 1100.8 429.824 1096.71 433.919C1040.75 489.882 1042.11 581.334 1098.07 637.297C1154.04 693.261 1245.49 694.626 1301.45 638.662C1341.04 601.809 1353.32 548.575 1338.31 500.802ZM1133.56 604.538C1095.34 566.32 1095.34 506.261 1133.56 468.043C1148.58 453.028 1166.32 443.473 1185.43 440.743L1185.43 407.984L1199.08 407.984C1204.54 424.364 1216.83 433.919 1230.47 433.919C1249.58 433.919 1264.6 413.444 1264.6 388.875C1264.6 364.306 1248.22 342.466 1229.11 342.466C1215.46 342.466 1204.54 353.386 1197.72 368.401H1184.07L1184.07 335.642C1164.96 332.912 1144.48 323.357 1129.47 308.343C1091.25 270.124 1091.25 210.066 1129.47 171.847C1167.69 133.628 1227.74 133.628 1265.96 171.847C1304.18 210.066 1304.18 270.124 1265.96 308.343L1308.28 350.656C1311.01 347.926 1312.37 343.831 1315.1 341.102C1343.77 312.437 1388.81 313.802 1416.11 341.102C1444.77 369.766 1443.41 414.809 1416.11 442.108C1388.81 469.408 1342.4 469.408 1315.1 442.108C1312.37 439.379 1308.28 435.284 1306.91 431.189L1268.69 469.408C1306.91 507.626 1306.91 567.685 1268.69 605.903C1230.47 644.122 1171.78 642.757 1133.56 604.538Z" fill="white"/>
</g>
</g>
<defs>
<clipPath id="clip0_141_18">
<rect width="1550.19" height="835" fill="white"/>
</clipPath>
<clipPath id="clip1_141_18">
<rect width="1235.42" height="1235.42" fill="white" transform="translate(774.573 -442.384) rotate(45)"/>
</clipPath>
</defs>
</svg>
