<svg width="28" height="28" viewBox="0 0 28 28" fill="none" xmlns="http://www.w3.org/2000/svg">
<path d="M14.0001 18.7857L9.76513 21.3431C9.64069 21.4045 9.52519 21.4294 9.41863 21.4177C9.31285 21.4053 9.2098 21.3687 9.10946 21.3081C9.00835 21.2458 8.93213 21.1579 8.8808 21.0444C8.82946 20.9308 8.8248 20.8068 8.8668 20.6722L9.9938 15.8772L6.2663 12.6456C6.1613 12.56 6.09207 12.4577 6.05863 12.3387C6.02519 12.2197 6.03257 12.1058 6.0808 11.9969C6.12902 11.888 6.19319 11.7986 6.2733 11.7286C6.35419 11.6609 6.46308 11.615 6.59996 11.5909L11.5186 11.1616L13.4366 6.62089C13.4895 6.49256 13.5657 6.4 13.6653 6.34322C13.7649 6.28645 13.8765 6.25806 14.0001 6.25806C14.1238 6.25806 14.2358 6.28645 14.3361 6.34322C14.4365 6.4 14.5123 6.49256 14.5636 6.62089L16.4816 11.1616L21.3991 11.5909C21.5368 11.6142 21.6461 11.6605 21.727 11.7297C21.8078 11.7982 21.8724 11.8872 21.9206 11.9969C21.9681 12.1058 21.9751 12.2197 21.9416 12.3387C21.9082 12.4577 21.839 12.56 21.734 12.6456L18.0065 15.8772L19.1335 20.6722C19.177 20.8052 19.1727 20.9289 19.1206 21.0432C19.0685 21.1576 18.9919 21.2454 18.8908 21.3069C18.7912 21.3691 18.6882 21.4061 18.5816 21.4177C18.4759 21.4294 18.3607 21.4045 18.2363 21.3431L14.0001 18.7857Z" fill="white"/>
</svg>
