<svg width="44" height="44" viewBox="0 0 44 44" fill="none" xmlns="http://www.w3.org/2000/svg">
<path d="M13.18 12.6499C13.18 12.6499 11.4713 12.6591 10.243 14.2779C9.15033 15.7171 9.429 16.9491 9.429 16.9491C9.429 16.9491 10.9103 17.2057 12.2138 15.6401C13.4348 14.1734 13.18 12.6499 13.18 12.6499ZM21.375 13.7792V18.0216H19.6535V20.5937H21.3768V28.1067C21.3768 30.1032 22.5502 31.3261 24.7703 31.3261C25.4866 31.3261 26.1692 31.2265 26.8182 31.0272C27.4659 30.8268 28.0147 30.627 28.4645 30.4277L27.7917 27.7822C27.59 27.8647 26.6678 28.2552 25.9693 28.2552C25.2323 28.2552 24.7227 27.8886 24.7227 26.9829V20.5937H27.4672V18.0197H24.7208V13.7774L21.375 13.7792ZM12.9197 17.1471C11.3925 17.1471 10.2192 18.0161 9.58666 18.0161C8.8515 18.0161 7.75333 17.1984 6.33616 17.1984C4.15633 17.1984 1.8335 19.1491 1.8335 22.8689C1.8335 26.6456 4.57616 31.3499 6.74683 31.3499C7.504 31.3499 8.66816 30.5854 9.8415 30.5854C10.9928 30.5854 11.8417 31.3206 12.9343 31.3206C15.314 31.3206 17.074 26.3651 17.074 26.3651C17.074 26.3651 14.555 25.3897 14.555 22.5591C14.555 20.0511 16.5772 19.0171 16.5772 19.0171C16.5772 19.0171 15.5432 17.1471 12.9142 17.1471M28.91 18.0197L33.728 31.0987H37.347L42.1668 18.0216H39.0227L35.6787 28.3799L32.3585 18.0216L28.91 18.0197Z" fill="white"/>
</svg>
