<svg width="60" height="60" viewBox="0 0 60 60" fill="none" xmlns="http://www.w3.org/2000/svg">
<g clip-path="url(#clip0_144_11)">
<path d="M0 30.0001V21.9951H41.45V38.0051H0V30.0001ZM10.7 31.8076V28.3826H13.1425V24.7626H3.7075V28.3776H6.1475V35.2326H10.7V31.8076ZM23.435 33.6276L23.4475 32.0176L24.89 32.0051L26.335 31.9926V29.3676L24.89 29.3551L23.4475 29.3426V27.4176L25.455 27.4051L27.46 27.3926V24.7651H18.87V35.2326H23.425L23.435 33.6276ZM37.6475 29.9776C37.6475 27.0576 37.63 24.7201 37.6075 24.7201C37.5725 24.7201 33.5 25.9126 33.1075 26.0401L32.9525 26.0876V35.2351H37.6475V29.9776ZM44.1725 33.0076V30.4451H46.425V31.0101H44.97V32.6526H46.0975V33.2626H44.925L44.9125 34.4001L44.9 35.5401L44.5375 35.5526L44.1725 35.5651V33.0076ZM55.6025 35.5226C55.2025 35.4176 55.11 35.2326 55.11 34.5576V34.0601H55.86V34.4576C55.86 34.9501 55.9 35.0001 56.285 35.0001C56.7025 35.0001 56.7075 34.9901 56.705 34.1151C56.7155 33.846 56.7005 33.5764 56.66 33.3101C56.6275 33.2551 56.485 33.2351 56.0775 33.2151C55.4775 33.1901 55.3425 33.1326 55.1925 32.8376C55.1225 32.7001 55.11 32.5401 55.11 31.7826C55.11 30.7776 55.145 30.6451 55.4425 30.4826C55.6725 30.3601 56.8825 30.3576 57.13 30.4826C57.3925 30.6151 57.46 30.8076 57.4475 31.3851L57.435 31.8776H56.73L56.715 31.4826C56.7171 31.3277 56.6952 31.1733 56.65 31.0251C56.585 30.9451 55.995 30.9426 55.9175 31.0201C55.8775 31.0576 55.86 31.2926 55.86 31.7701C55.86 32.6251 55.845 32.6051 56.54 32.6051C56.93 32.6051 57.0375 32.6226 57.165 32.7001C57.425 32.8601 57.455 33.0026 57.455 34.0651C57.455 35.1326 57.43 35.2501 57.135 35.4326C56.985 35.5251 56.895 35.5401 56.3525 35.5476C56.1022 35.5581 55.8515 35.5497 55.6025 35.5226ZM46.9425 32.9351V30.4001H47.6925V35.4701H46.9425V32.9351ZM48.4425 32.9351V30.4001H49.195V34.8576H50.4625V35.4701H48.445L48.4425 32.9351ZM50.98 32.9351V30.4001H51.915L51.985 30.6451C52.025 30.7801 52.205 31.4301 52.385 32.0901C52.57 32.7476 52.735 33.3251 52.7525 33.3701C52.775 33.4251 52.93 32.9351 53.2075 31.9276L53.63 30.4001H54.4525V35.4701H53.75L53.7475 33.6951L53.745 31.9251L53.405 33.1226L53.0625 34.3201L52.7125 34.3326L52.365 34.3451L52.015 33.0901L51.6625 31.8351L51.65 33.6501L51.6375 35.4676H50.98V32.9351ZM44.665 29.6526C44.2425 29.5501 44.1725 29.4076 44.1725 28.6626V28.0951L44.5375 28.1076L44.9 28.1201L44.915 28.5176C44.9129 28.6726 44.9348 28.8269 44.98 28.9751C45.0125 29.0126 45.145 29.0351 45.355 29.0351C45.66 29.0351 45.68 29.0276 45.725 28.9151C45.795 28.7326 45.7825 27.4726 45.7125 27.3826C45.6675 27.3276 45.5325 27.3026 45.1575 27.2851C44.595 27.2601 44.4075 27.1901 44.2675 26.9551C44.1825 26.8201 44.175 26.7151 44.175 25.8676C44.175 25.0176 44.185 24.9126 44.265 24.7776C44.4325 24.5076 44.55 24.4651 45.19 24.4426C45.6 24.4301 45.77 24.4376 45.77 24.4751C45.77 24.5051 45.825 24.5301 45.89 24.5301C46.135 24.5301 46.3325 24.6551 46.4325 24.8801C46.5075 25.0526 46.5225 25.1726 46.5125 25.5476L46.5 26.0076L46.135 26.0201L45.7725 26.0326V25.6526C45.7725 25.1226 45.7475 25.0901 45.3575 25.0901C45.1725 25.0901 45.015 25.1126 44.9825 25.1451C44.945 25.1851 44.9275 25.4251 44.9275 25.9201V26.6401L45.0475 26.6876C45.1125 26.7126 45.3675 26.7326 45.6125 26.7326C46.4475 26.7326 46.52 26.8501 46.5225 28.1776C46.5225 29.1451 46.4975 29.2901 46.2825 29.4876C46.186 29.5601 46.0752 29.6113 45.9575 29.6376C45.7225 29.6951 44.8825 29.6976 44.6675 29.6476L44.665 29.6526ZM50.04 27.1126V24.5301H51.02C51.96 24.5301 52.005 24.5351 52.1575 24.6376C52.4225 24.8176 52.4325 24.8701 52.4325 26.0626C52.4325 27.1126 52.4325 27.1501 52.3275 27.3051C52.2269 27.4411 52.09 27.5459 51.9325 27.6076C51.9275 27.6076 52.09 28.0376 52.2925 28.5601C52.4975 29.0826 52.6775 29.5526 52.6925 29.6051C52.7225 29.6951 52.7075 29.6976 52.31 29.6851L51.8975 29.6726L51.5025 28.6526L51.105 27.6301H50.7925V29.6951H50.0425L50.04 27.1126ZM51.705 26.8201C51.7625 26.7376 51.7775 26.5701 51.7775 25.9801C51.7775 25.0676 51.795 25.0951 51.21 25.0951H50.7925V26.9251H51.2125C51.5925 26.9251 51.6375 26.9151 51.705 26.8201ZM58.12 29.6501C58.0049 29.6139 57.9003 29.5504 57.815 29.4651L57.67 29.3176L57.655 28.7051L57.64 28.0951L58.0075 28.1101L58.375 28.1251L58.39 28.5226C58.3871 28.6774 58.4082 28.8318 58.4525 28.9801C58.485 29.0176 58.62 29.0401 58.8275 29.0401C59.095 29.0401 59.1525 29.0251 59.195 28.9501C59.27 28.8126 59.26 27.4201 59.185 27.3626C58.9993 27.316 58.8089 27.2908 58.6175 27.2876C58.0425 27.2576 57.875 27.1876 57.735 26.9276C57.66 26.7851 57.6475 26.6526 57.6475 25.8726C57.6475 24.8626 57.68 24.7301 57.9775 24.5576C58.11 24.4826 58.2425 24.4601 58.6925 24.4476C59.075 24.4351 59.2425 24.4476 59.2425 24.4826C59.2425 24.5101 59.3125 24.5326 59.3975 24.5326C59.48 24.5326 59.62 24.5776 59.705 24.6276C59.9375 24.7726 60 24.9726 59.985 25.5326L59.9725 26.0126H59.2675L59.2525 25.6151C59.2546 25.4602 59.2327 25.3058 59.1875 25.1576C59.1225 25.0801 58.5325 25.0751 58.455 25.1526C58.415 25.1926 58.3975 25.4276 58.3975 25.9026C58.3975 26.7601 58.3825 26.7401 59.0775 26.7401C59.6225 26.7401 59.8125 26.8176 59.9275 27.0901C60.0275 27.3376 60.025 29.0826 59.92 29.3026C59.78 29.5976 59.595 29.6651 58.895 29.6801C58.6372 29.6917 58.379 29.6834 58.1225 29.6551L58.12 29.6501ZM47.225 27.0651V24.5301H49.3825V25.1426H47.975V26.6426H49.2L49.185 26.9601L49.17 27.2776L48.57 27.2901L47.9725 27.3026V28.9901H49.4275V29.6001H47.2225L47.225 27.0651ZM53.375 27.0651V24.5301H54.125V29.6001H53.375V27.0651ZM54.925 27.0651V24.5301H57.0875L57.0725 24.8251L57.0575 25.1176L56.365 25.1301L55.6725 25.1426V26.6426H56.845V27.3001H55.6725V28.9901H57.1275V29.6001H54.92L54.925 27.0651ZM47.8425 24.3051C47.85 24.2801 47.9425 24.1251 48.045 23.9551L48.2325 23.6401H48.575C48.965 23.6401 48.965 23.6126 48.61 24.0526L48.375 24.3426H48.1C47.95 24.3426 47.8325 24.3251 47.8425 24.3051Z" fill="white"/>
</g>
<defs>
<clipPath id="clip0_144_11">
<rect width="60" height="60" fill="white"/>
</clipPath>
</defs>
</svg>
