<svg width="38" height="38" viewBox="0 0 38 38" fill="none" xmlns="http://www.w3.org/2000/svg">
<path d="M9.50029 7.6001C7.98856 7.6001 6.53874 8.20063 5.46978 9.26959C4.40083 10.3385 3.80029 11.7884 3.80029 13.3001V24.7001C3.80029 26.2118 4.40083 27.6617 5.46978 28.7306C6.53874 29.7996 7.98856 30.4001 9.50029 30.4001H28.5003C30.012 30.4001 31.4618 29.7996 32.5308 28.7306C33.5998 27.6617 34.2003 26.2118 34.2003 24.7001V13.3001C34.2003 11.7884 33.5998 10.3385 32.5308 9.26959C31.4618 8.20063 30.012 7.6001 28.5003 7.6001H9.50029ZM29.4503 11.4001C29.7022 11.4001 29.9439 11.5002 30.122 11.6783C30.3002 11.8565 30.4003 12.0981 30.4003 12.3501V14.2501C30.4003 14.5021 30.3002 14.7437 30.122 14.9218C29.9439 15.1 29.7022 15.2001 29.4503 15.2001C29.1983 15.2001 28.9567 15.1 28.7785 14.9218C28.6004 14.7437 28.5003 14.5021 28.5003 14.2501V12.3501C28.5003 12.0981 28.6004 11.8565 28.7785 11.6783C28.9567 11.5002 29.1983 11.4001 29.4503 11.4001ZM28.5003 23.7501C28.5003 23.4981 28.6004 23.2565 28.7785 23.0783C28.9567 22.9002 29.1983 22.8001 29.4503 22.8001C29.7022 22.8001 29.9439 22.9002 30.122 23.0783C30.3002 23.2565 30.4003 23.4981 30.4003 23.7501V25.6501C30.4003 25.9021 30.3002 26.1437 30.122 26.3219C29.9439 26.5 29.7022 26.6001 29.4503 26.6001C29.1983 26.6001 28.9567 26.5 28.7785 26.3219C28.6004 26.1437 28.5003 25.9021 28.5003 25.6501V23.7501ZM29.4503 17.1001C29.7022 17.1001 29.9439 17.2002 30.122 17.3783C30.3002 17.5565 30.4003 17.7981 30.4003 18.0501V19.9501C30.4003 20.2021 30.3002 20.4437 30.122 20.6219C29.9439 20.8 29.7022 20.9001 29.4503 20.9001C29.1983 20.9001 28.9567 20.8 28.7785 20.6219C28.6004 20.4437 28.5003 20.2021 28.5003 19.9501V18.0501C28.5003 17.7981 28.6004 17.5565 28.7785 17.3783C28.9567 17.2002 29.1983 17.1001 29.4503 17.1001ZM7.60029 12.3501C7.60029 12.0981 7.70038 11.8565 7.87854 11.6783C8.0567 11.5002 8.29834 11.4001 8.55029 11.4001C8.80225 11.4001 9.04388 11.5002 9.22204 11.6783C9.4002 11.8565 9.50029 12.0981 9.50029 12.3501V14.2501C9.50029 14.5021 9.4002 14.7437 9.22204 14.9218C9.04388 15.1 8.80225 15.2001 8.55029 15.2001C8.29834 15.2001 8.0567 15.1 7.87854 14.9218C7.70038 14.7437 7.60029 14.5021 7.60029 14.2501V12.3501ZM8.55029 22.8001C8.80225 22.8001 9.04388 22.9002 9.22204 23.0783C9.4002 23.2565 9.50029 23.4981 9.50029 23.7501V25.6501C9.50029 25.9021 9.4002 26.1437 9.22204 26.3219C9.04388 26.5 8.80225 26.6001 8.55029 26.6001C8.29834 26.6001 8.0567 26.5 7.87854 26.3219C7.70038 26.1437 7.60029 25.9021 7.60029 25.6501V23.7501C7.60029 23.4981 7.70038 23.2565 7.87854 23.0783C8.0567 22.9002 8.29834 22.8001 8.55029 22.8001ZM7.60029 18.0501C7.60029 17.7981 7.70038 17.5565 7.87854 17.3783C8.0567 17.2002 8.29834 17.1001 8.55029 17.1001C8.80225 17.1001 9.04388 17.2002 9.22204 17.3783C9.4002 17.5565 9.50029 17.7981 9.50029 18.0501V19.9501C9.50029 20.2021 9.4002 20.4437 9.22204 20.6219C9.04388 20.8 8.80225 20.9001 8.55029 20.9001C8.29834 20.9001 8.0567 20.8 7.87854 20.6219C7.70038 20.4437 7.60029 20.2021 7.60029 19.9501V18.0501ZM15.2003 15.4395C15.2003 14.5218 16.0743 13.9518 16.7735 14.4135L22.3595 18.1242C22.9485 18.5156 22.9485 19.4846 22.3595 19.876L16.7735 23.5867C16.0762 24.0484 15.2003 23.4784 15.2003 22.5607V15.4395Z" fill="white"/>
</svg>
