<svg width="48" height="48" viewBox="0 0 48 48" fill="none" xmlns="http://www.w3.org/2000/svg">
<path d="M41.7801 21.046H39.5621V16.6H35.9361V21.04H31.4981V24.728H35.9361V29.166H39.5621V27.182C39.5621 26.09 39.5801 25.09 39.6021 24.962L39.6401 24.728H44.0001V21.046H41.7801ZM24.0001 13.828C22.1561 14.228 21.2741 15.342 19.6741 19.294C18.6001 22 18.3581 22.354 17.5261 22.666C16.2981 23.128 15.2421 22.508 14.0301 20.608C11.8781 17.238 11.0541 16.348 9.76215 16.008C5.42415 14.878 2.70815 21.466 4.62415 28.464C5.55015 31.84 6.43415 32.988 7.70015 32.464C8.66615 32.064 8.66415 31.286 7.70015 28.1C6.83415 25.264 6.95615 23.922 8.08215 23.922C8.65615 23.922 8.88215 24.226 10.7241 27.454C12.1481 29.95 12.3801 30.278 13.1481 30.888C14.1007 31.5784 15.262 31.9198 16.4367 31.8546C17.6114 31.7894 18.7278 31.3216 19.5981 30.53C20.3581 29.758 20.5701 29.306 21.3821 26.73C22.6981 22.57 23.7521 20.862 25.0081 20.856C26.1961 20.856 26.5041 22.022 26.1881 25.372C25.9261 28.172 26.1881 28.918 27.3981 28.918C28.8301 28.918 29.4421 27.22 29.4441 23.242C29.4381 16.86 27.2801 13.116 24.0001 13.828Z" fill="white"/>
</svg>
