<svg width="31" height="31" viewBox="0 0 31 31" fill="none" xmlns="http://www.w3.org/2000/svg">
<g clip-path="url(#clip0_144_5)">
<path d="M30.0662 27.5125L5.08791 31L0.932617 27.5125H30.0662ZM9.8167 24.8982H5.08791V0H12.9051C15.182 0.00102545 17.3654 0.905617 18.9759 2.51514C20.5864 4.12466 21.4923 6.30753 21.4947 8.58442C21.4947 11.47 20.0635 14.0146 17.8793 15.5827L24.8775 24.8969H18.9552L13.1608 17.174H9.8167V24.8982ZM9.8167 12.4465H12.9064C13.9302 12.4462 14.912 12.0393 15.636 11.3153C16.3599 10.5914 16.7668 9.60955 16.7672 8.58571C16.7644 7.56296 16.3567 6.58294 15.6331 5.8601C14.9095 5.13727 13.9291 4.7305 12.9064 4.72879H9.8167V12.4465Z" fill="white"/>
</g>
<defs>
<clipPath id="clip0_144_5">
<rect width="31" height="31" fill="white"/>
</clipPath>
</defs>
</svg>
