<svg width="32" height="32" viewBox="0 0 32 32" fill="none" xmlns="http://www.w3.org/2000/svg">
<path d="M3 9.33317C3 8.36071 3.38631 7.42808 4.07394 6.74045C4.76158 6.05281 5.69421 5.6665 6.66667 5.6665H25.3333C26.3058 5.6665 27.2384 6.05281 27.9261 6.74045C28.6137 7.42808 29 8.36071 29 9.33317V13.3332C29 13.5984 28.8946 13.8527 28.7071 14.0403C28.5196 14.2278 28.2652 14.3332 28 14.3332C27.558 14.3332 27.134 14.5088 26.8215 14.8213C26.5089 15.1339 26.3333 15.5578 26.3333 15.9998C26.3333 16.4419 26.5089 16.8658 26.8215 17.1783C27.134 17.4909 27.558 17.6665 28 17.6665C28.2652 17.6665 28.5196 17.7719 28.7071 17.9594C28.8946 18.1469 29 18.4013 29 18.6665V22.6665C29 23.639 28.6137 24.5716 27.9261 25.2592C27.2384 25.9469 26.3058 26.3332 25.3333 26.3332H6.66667C5.69421 26.3332 4.76158 25.9469 4.07394 25.2592C3.38631 24.5716 3 23.639 3 22.6665V18.6665C3 18.4013 3.10536 18.1469 3.29289 17.9594C3.48043 17.7719 3.73478 17.6665 4 17.6665C4.44203 17.6665 4.86595 17.4909 5.17851 17.1783C5.49107 16.8658 5.66667 16.4419 5.66667 15.9998C5.66667 15.5578 5.49107 15.1339 5.17851 14.8213C4.86595 14.5088 4.44203 14.3332 4 14.3332C3.73478 14.3332 3.48043 14.2278 3.29289 14.0403C3.10536 13.8527 3 13.5984 3 13.3332V9.33317ZM17 10.6665C17 10.4013 16.8946 10.1469 16.7071 9.9594C16.5196 9.77186 16.2652 9.6665 16 9.6665C15.7348 9.6665 15.4804 9.77186 15.2929 9.9594C15.1054 10.1469 15 10.4013 15 10.6665V11.3332C15 11.5984 15.1054 11.8527 15.2929 12.0403C15.4804 12.2278 15.7348 12.3332 16 12.3332C16.2652 12.3332 16.5196 12.2278 16.7071 12.0403C16.8946 11.8527 17 11.5984 17 11.3332V10.6665ZM17 15.6665C17 15.4013 16.8946 15.1469 16.7071 14.9594C16.5196 14.7719 16.2652 14.6665 16 14.6665C15.7348 14.6665 15.4804 14.7719 15.2929 14.9594C15.1054 15.1469 15 15.4013 15 15.6665V16.3332C15 16.5984 15.1054 16.8527 15.2929 17.0403C15.4804 17.2278 15.7348 17.3332 16 17.3332C16.2652 17.3332 16.5196 17.2278 16.7071 17.0403C16.8946 16.8527 17 16.5984 17 16.3332V15.6665ZM17 20.6665C17 20.4013 16.8946 20.1469 16.7071 19.9594C16.5196 19.7719 16.2652 19.6665 16 19.6665C15.7348 19.6665 15.4804 19.7719 15.2929 19.9594C15.1054 20.1469 15 20.4013 15 20.6665V21.3332C15 21.5984 15.1054 21.8527 15.2929 22.0403C15.4804 22.2278 15.7348 22.3332 16 22.3332C16.2652 22.3332 16.5196 22.2278 16.7071 22.0403C16.8946 21.8527 17 21.5984 17 21.3332V20.6665Z" fill="white"/>
</svg>
