<svg width="32" height="32" viewBox="0 0 32 32" fill="none" xmlns="http://www.w3.org/2000/svg">
<path d="M1.38683 23.3599C1.47572 23.2177 1.61794 23.2088 1.8135 23.3332C6.21467 25.9001 11.2253 27.2356 16.3202 27.1999C19.8507 27.1921 23.3494 26.5321 26.6402 25.2532C26.7291 25.2177 26.8579 25.1644 27.0268 25.0932C27.1957 25.0221 27.3157 24.9688 27.3868 24.9332C27.4922 24.8758 27.6154 24.8603 27.7316 24.89C27.8479 24.9197 27.9486 24.9923 28.0135 25.0932C28.1646 25.3066 28.1157 25.5021 27.8668 25.6799C27.5468 25.911 27.1379 26.1777 26.6402 26.4799C25.0394 27.4161 23.3162 28.1251 21.5202 28.5866C19.7201 29.0727 17.8647 29.3236 16.0002 29.3332C13.3098 29.3492 10.6406 28.8561 8.1335 27.8799C5.69141 26.9271 3.44186 25.5403 1.4935 23.7866C1.44859 23.7569 1.41091 23.7176 1.38322 23.6714C1.35553 23.6253 1.33854 23.5735 1.3335 23.5199C1.3335 23.4622 1.35221 23.4061 1.38683 23.3599ZM9.4135 15.7599C9.38185 14.6423 9.69872 13.5426 10.3202 12.6132C10.9396 11.7304 11.8007 11.0452 12.8002 10.6399C13.9364 10.1852 15.1298 9.88908 16.3468 9.75991C16.8268 9.70658 17.6091 9.63547 18.6935 9.54658V9.09324C18.761 8.30968 18.6327 7.52162 18.3202 6.79991C18.1183 6.52867 17.851 6.31303 17.5432 6.17312C17.2355 6.03322 16.8972 5.97363 16.5602 5.99991H16.3468C15.7976 6.0402 15.2709 6.23427 14.8268 6.55991C14.3958 6.88681 14.1013 7.36185 14.0002 7.89324C13.9892 8.03928 13.9313 8.17785 13.8352 8.28836C13.7391 8.39887 13.6099 8.4754 13.4668 8.50658L10.4002 8.13324C10.0979 8.06213 9.94683 7.90213 9.94683 7.65324C9.94833 7.59019 9.95728 7.52753 9.9735 7.46658C10.0765 6.75633 10.328 6.07576 10.7116 5.46924C11.0953 4.86273 11.6025 4.3439 12.2002 3.94658C13.4456 3.16233 14.876 2.72079 16.3468 2.66658H17.0135C18.739 2.56226 20.4386 3.1256 21.7602 4.23991C21.938 4.41911 22.1028 4.6107 22.2535 4.81324C22.3846 4.98792 22.5048 5.17049 22.6135 5.35991C22.7251 5.57886 22.8058 5.81218 22.8535 6.05324C22.9246 6.35547 22.9779 6.56435 23.0135 6.67991C23.0635 6.92574 23.0903 7.17573 23.0935 7.42658C23.1113 7.8088 23.1202 8.03547 23.1202 8.10658V14.5599C23.1159 14.9903 23.1835 15.4184 23.3202 15.8266C23.4105 16.1186 23.5407 16.3967 23.7068 16.6532C23.8313 16.8221 24.0357 17.0932 24.3202 17.4666C24.4137 17.5903 24.4693 17.7385 24.4802 17.8932C24.4771 17.968 24.4562 18.041 24.4191 18.1059C24.3819 18.1709 24.3297 18.226 24.2668 18.2666C22.7913 19.5466 21.9913 20.2399 21.8668 20.3466C21.7552 20.4254 21.624 20.4721 21.4876 20.4815C21.3513 20.4909 21.2149 20.4627 21.0935 20.3999C20.8446 20.1866 20.6268 19.9821 20.4402 19.7866C20.2535 19.591 20.1202 19.4488 20.0402 19.3599C19.9029 19.1929 19.7739 19.0194 19.6535 18.8399C19.4757 18.5821 19.3513 18.4088 19.2802 18.3199C18.5092 19.2544 17.4936 19.956 16.3468 20.3466C15.6165 20.5408 14.8623 20.6306 14.1068 20.6132C13.4887 20.6362 12.8721 20.5361 12.293 20.3186C11.7139 20.1012 11.1838 19.7708 10.7335 19.3466C10.2762 18.8733 9.92269 18.31 9.69541 17.6924C9.46812 17.0748 9.37211 16.4167 9.4135 15.7599ZM14.0002 15.2266C13.9705 15.8262 14.1548 16.4169 14.5202 16.8932C14.6898 17.0981 14.9043 17.2612 15.1471 17.3699C15.3898 17.4785 15.6544 17.5299 15.9202 17.5199C15.9963 17.5175 16.0722 17.5086 16.1468 17.4932C16.2127 17.4793 16.2796 17.4704 16.3468 17.4666C16.7222 17.3652 17.0714 17.184 17.3705 16.9355C17.6696 16.687 17.9116 16.377 18.0802 16.0266C18.2795 15.6809 18.4277 15.3081 18.5202 14.9199C18.6035 14.6011 18.657 14.2753 18.6802 13.9466C18.6891 13.6977 18.6935 13.2888 18.6935 12.7199V12.0532C17.9055 12.0291 17.1175 12.1007 16.3468 12.2666C15.6626 12.3902 15.0469 12.7589 14.615 13.3038C14.183 13.8486 13.9644 14.5322 14.0002 15.2266ZM25.2002 23.8132C25.2412 23.7337 25.2953 23.6616 25.3602 23.5999C25.7483 23.3232 26.1813 23.1157 26.6402 22.9866C27.2845 22.8132 27.9466 22.7147 28.6135 22.6932C28.7827 22.6751 28.9538 22.6841 29.1202 22.7199C29.9202 22.791 30.4002 22.9244 30.5602 23.1199C30.6406 23.2665 30.6776 23.433 30.6668 23.5999V23.7866C30.6355 24.5449 30.4637 25.2909 30.1602 25.9866C29.8635 26.7722 29.3781 27.4728 28.7468 28.0266C28.6811 28.0881 28.5966 28.1257 28.5068 28.1332C28.4698 28.1319 28.4335 28.1228 28.4002 28.1066C28.2935 28.0532 28.2668 27.9555 28.3202 27.8132C28.8271 26.8004 29.1606 25.7097 29.3068 24.5866C29.3206 24.4364 29.283 24.286 29.2002 24.1599C29.0224 23.9466 28.5246 23.8399 27.7068 23.8399C27.4046 23.8399 27.0491 23.8577 26.6402 23.8932C26.1957 23.9466 25.7868 23.9999 25.4135 24.0532C25.3382 24.0625 25.2622 24.0434 25.2002 23.9999C25.1841 23.988 25.1726 23.9708 25.1678 23.9513C25.1629 23.9319 25.1649 23.9114 25.1735 23.8932C25.1781 23.8653 25.1871 23.8383 25.2002 23.8132Z" fill="white"/>
</svg>
