<svg width="32" height="32" viewBox="0 0 32 32" fill="none" xmlns="http://www.w3.org/2000/svg">
<path d="M23.9998 14.6667C23.9998 13.388 23.0932 12.3187 21.8918 12.0613C22.3718 11.26 22.6665 10.3333 22.6665 9.33333C22.6665 6.392 20.2745 4 17.3332 4C15.3118 4 13.5705 5.14267 12.6665 6.80533C11.7625 5.14267 10.0212 4 7.99984 4C5.0585 4 2.6665 6.392 2.6665 9.33333C2.6665 10.536 3.0825 11.6347 3.75584 12.528C3.41975 12.7745 3.14614 13.0964 2.95696 13.4679C2.76778 13.8393 2.6683 14.2499 2.6665 14.6667V25.3333C2.6665 26.804 3.8625 28 5.33317 28H21.3332C22.8038 28 23.9998 26.804 23.9998 25.3333V21.8173L29.3332 24.484V15.1507L23.9998 17.8173V14.6667ZM17.3332 6.66667C18.8038 6.66667 19.9998 7.86267 19.9998 9.33333C19.9998 10.804 18.8038 12 17.3332 12C15.8625 12 14.6665 10.804 14.6665 9.33333C14.6665 7.86267 15.8625 6.66667 17.3332 6.66667ZM7.99984 6.66667C9.4705 6.66667 10.6665 7.86267 10.6665 9.33333C10.6665 10.804 9.4705 12 7.99984 12C6.52917 12 5.33317 10.804 5.33317 9.33333C5.33317 7.86267 6.52917 6.66667 7.99984 6.66667Z" fill="white"/>
</svg>
