<svg width="32" height="32" viewBox="0 0 32 32" fill="none" xmlns="http://www.w3.org/2000/svg">
<g clip-path="url(#clip0_21_99)">
<path d="M9.38933 22.5281H5.88533V17.5227H3.61067V22.5281H0.0133333L0 9.62673H3.61067V14.4267H5.88533V9.62673H9.38933V22.5281ZM25.4467 22.5894C29.06 22.5867 32 19.5854 32 15.9707C32.0053 15.1083 31.8395 14.2535 31.5121 13.4556C31.1847 12.6578 30.7023 11.9328 30.0928 11.3227C29.4833 10.7125 28.7588 10.2294 27.9613 9.9012C27.1638 9.57301 26.3091 9.40631 25.4467 9.41073C21.8373 9.40806 19.9933 12.0654 19.5373 13.1374C19.5413 11.5281 17.9547 9.62806 16.0973 9.6254H10.12V22.5241L15.6947 22.5254C17.9427 22.5254 19.5427 20.5787 19.5453 18.9081C20.0587 19.9587 21.8387 22.5907 25.448 22.5881L25.4467 22.5894ZM15.2267 17.3414C15.7427 17.3414 16.1493 17.8507 16.1493 18.4307C16.1493 19.0107 15.7427 19.5201 15.2267 19.5201H13.4533V17.3414H15.2267ZM15.2333 12.4974C15.7493 12.4974 16.156 13.0067 16.156 13.5867C16.156 14.1681 15.7493 14.6774 15.2333 14.6774H13.46V12.4974H15.2333ZM17.5933 15.9734C18 15.9214 18.6773 15.4574 18.916 15.1601C18.832 15.5281 18.8253 16.5921 18.924 16.9601C18.652 16.5414 18.0067 16.0254 17.5933 15.9734ZM22.1667 15.9734C22.1667 15.5423 22.2516 15.1154 22.4165 14.7172C22.5815 14.3189 22.8233 13.957 23.1281 13.6522C23.433 13.3474 23.7948 13.1056 24.1931 12.9406C24.5914 12.7756 25.0182 12.6907 25.4493 12.6907C25.8804 12.6907 26.3073 12.7756 26.7056 12.9406C27.1038 13.1056 27.4657 13.3474 27.7705 13.6522C28.0754 13.957 28.3172 14.3189 28.4821 14.7172C28.6471 15.1154 28.732 15.5423 28.732 15.9734C28.732 16.8442 28.3861 17.6793 27.7703 18.2951C27.1546 18.9108 26.3195 19.2567 25.4487 19.2567C24.5779 19.2567 23.7427 18.9108 23.127 18.2951C22.5113 17.6793 22.1667 16.8442 22.1667 15.9734ZM25.4493 18.5547C26.1339 18.5547 26.7905 18.2828 27.2746 17.7987C27.7587 17.3146 28.0307 16.658 28.0307 15.9734C28.0307 15.2888 27.7587 14.6322 27.2746 14.1481C26.7905 13.664 26.1339 13.3921 25.4493 13.3921C24.7647 13.3921 24.1081 13.664 23.6241 14.1481C23.14 14.6322 22.868 15.2888 22.868 15.9734C22.868 16.658 23.14 17.3146 23.6241 17.7987C24.1081 18.2828 24.7647 18.5547 25.4493 18.5547Z" fill="white"/>
</g>
<defs>
<clipPath id="clip0_21_99">
<rect width="32" height="32" fill="white"/>
</clipPath>
</defs>
</svg>
