<svg width="217" height="60" viewBox="0 0 217 60" fill="none" xmlns="http://www.w3.org/2000/svg">
<path d="M8.53283 33.9192H7.60599L13.0788 25.3716H15.0354V34.8901H13.0788V27.9756L13.5495 28.108L9.18015 34.8901H6.9881L2.6187 28.1374L3.08947 28.005V34.8901H1.13281V25.3716H3.08947L8.53283 33.9192ZM28.5502 35.0814C27.2849 35.0814 26.2012 34.8852 25.2989 34.4929C24.4063 34.0908 23.7198 33.5219 23.2392 32.7864C22.7684 32.0508 22.533 31.1681 22.533 30.1382C22.533 29.0986 22.7684 28.211 23.2392 27.4754C23.7198 26.7398 24.4063 26.1759 25.2989 25.7835C26.2012 25.3814 27.2849 25.1804 28.5502 25.1804C29.8252 25.1804 30.9089 25.3814 31.8015 25.7835C32.694 26.1759 33.3756 26.7398 33.8464 27.4754C34.327 28.211 34.5673 29.0986 34.5673 30.1382C34.5673 31.1681 34.327 32.0508 33.8464 32.7864C33.3756 33.5219 32.694 34.0908 31.8015 34.4929C30.9089 34.8852 29.8252 35.0814 28.5502 35.0814ZM28.5502 33.3895C29.3348 33.3895 30.0213 33.2718 30.6098 33.0365C31.2081 32.8011 31.674 32.4431 32.0074 31.9625C32.3507 31.4819 32.5223 30.8738 32.5223 30.1382C32.5223 29.4026 32.3507 28.7946 32.0074 28.314C31.674 27.8334 31.2081 27.4754 30.6098 27.24C30.0213 26.9948 29.3348 26.8722 28.5502 26.8722C27.7753 26.8722 27.0839 26.9948 26.4758 27.24C25.8677 27.4754 25.392 27.8334 25.0488 28.314C24.7055 28.7946 24.5338 29.4026 24.5338 30.1382C24.5338 30.8738 24.7055 31.4819 25.0488 31.9625C25.392 32.4431 25.8677 32.8011 26.4758 33.0365C27.0839 33.2718 27.7753 33.3895 28.5502 33.3895ZM44.8621 34.8901L40.6545 25.3716H42.8171L46.4215 33.9633H45.7448L49.3345 25.3716H51.4677L47.3042 34.8901H44.8621ZM58.7705 25.3716H60.7271V34.8901H58.7705V25.3716ZM70.8079 30.918V33.2571H78.1491V34.8901H68.8512V25.3716H78.1344V27.0046H70.8079V29.3732H76.8103V30.918H70.8079Z" fill="white"/>
<g clip-path="url(#clip0_20_1623)">
<path d="M89.8079 32.5056L89.8546 30.871L93.6843 30.871L93.6843 28.9094L97.4673 28.9561L97.4672 30.9177L101.39 30.9177L101.39 32.599L100.363 32.599L100.41 34.0468L101.437 34.0468L101.39 34.9341L101.39 38.0166L98.6348 37.9699L98.5881 34.9341L96.6733 34.8874L96.6733 37.8764L94.5716 37.8297L94.6184 34.8874L92.6568 34.8874L92.6568 37.8764L89.8546 37.8764L89.8546 34.8874L89.8546 34.794L89.8546 33.9534L90.8354 34.0001L90.8354 32.5056L89.8079 32.5056Z" fill="white"/>
<path d="M129.178 32.2718C130.486 32.6454 131.934 32.3185 133.008 31.2443C134.549 29.7031 134.503 27.2278 132.961 25.6866C131.934 24.6591 130.439 24.2855 129.178 24.6124C129.395 23.7733 129.388 22.8922 129.159 22.0565C128.929 21.2208 128.485 20.4597 127.871 19.8487C125.909 17.8872 122.827 17.8872 120.912 19.802C118.997 21.7168 119.044 24.846 120.959 26.7608C121.145 26.9476 121.285 27.0877 121.472 27.1811L120.492 27.1344L119.417 26.0602L118.39 27.0877L117.829 27.0877L117.829 26.9009C117.829 26.4339 117.409 26.0135 116.942 26.0135L116.849 26.0135C116.382 26.0135 116.008 26.3872 116.008 26.8542L116.008 27.041L90.0877 26.9943L90.0877 27.4613L89.4339 27.4613C89.2471 26.9943 88.8268 26.574 88.3597 26.574C87.7059 26.574 87.1921 27.2745 87.1921 28.1152C87.1921 28.9558 87.7526 29.7031 88.4064 29.7031C88.8735 29.7031 89.2471 29.3295 89.4806 28.8157L90.1345 28.8157L90.1344 29.2828L115.961 29.4229L115.961 29.6097C115.961 30.0767 116.382 30.497 116.849 30.497L116.942 30.497C117.409 30.497 117.783 30.1234 117.783 29.6564L117.783 29.4696L118.343 29.4696L119.417 30.5437L120.445 29.5163L121.426 29.563C121.285 29.7031 121.052 29.8432 120.912 29.9833C118.997 31.8981 119.044 35.0273 120.959 36.9421C122.873 38.8569 126.003 38.9036 127.917 36.9888C129.272 35.7278 129.692 33.9064 129.178 32.2718ZM122.173 35.8212C120.865 34.5135 120.865 32.4586 122.173 31.1509C122.687 30.6372 123.294 30.3102 123.948 30.2168L123.948 29.0959L124.415 29.0959C124.601 29.6564 125.022 29.9833 125.489 29.9833C126.143 29.9833 126.656 29.2828 126.656 28.4421C126.656 27.6014 126.096 26.8542 125.442 26.8542C124.975 26.8542 124.601 27.2278 124.368 27.7416L123.901 27.7416L123.901 26.6207C123.247 26.5273 122.546 26.2003 122.033 25.6866C120.725 24.3789 120.725 22.324 122.033 21.0163C123.34 19.7086 125.395 19.7086 126.703 21.0163C128.011 22.324 128.011 24.3789 126.703 25.6866L128.151 27.1344C128.244 27.041 128.291 26.9009 128.384 26.8075C129.365 25.8267 130.906 25.8734 131.84 26.8075C132.821 27.7883 132.774 29.3295 131.84 30.2635C130.906 31.1976 129.318 31.1976 128.384 30.2635C128.291 30.1701 128.151 30.03 128.104 29.8899L126.796 31.1976C128.104 32.5053 128.104 34.5602 126.796 35.8679C125.489 37.1756 123.481 37.1289 122.173 35.8212Z" fill="white"/>
</g>
<path d="M144.282 34.8901L140.075 25.3716H142.237L145.842 33.9633H145.165L148.754 25.3716H150.888L146.724 34.8901H144.282ZM158.219 32.8158V31.1828H164.515V32.8158H158.219ZM155.85 34.8901L160.323 25.3716H162.441L166.958 34.8901H164.824L160.911 26.3132H161.853L157.969 34.8901H155.85ZM182.441 30.6826V25.3716H184.397V30.8885C184.397 31.5162 184.304 32.0655 184.118 32.5363C183.941 33.007 183.686 33.4042 183.353 33.7279C183.019 34.0516 182.627 34.3164 182.176 34.5223C181.735 34.7185 181.249 34.8607 180.719 34.949C180.2 35.0373 179.65 35.0814 179.072 35.0814C178.473 35.0814 177.905 35.0373 177.365 34.949C176.826 34.8607 176.33 34.7185 175.879 34.5223C175.438 34.3164 175.055 34.0516 174.732 33.7279C174.408 33.4042 174.153 33.007 173.967 32.5363C173.79 32.0655 173.702 31.5162 173.702 30.8885V25.3716H175.659V30.6826C175.659 31.428 175.806 31.9968 176.1 32.3891C176.394 32.7716 176.796 33.0365 177.306 33.1836C177.826 33.3209 178.415 33.3895 179.072 33.3895C179.709 33.3895 180.278 33.3209 180.778 33.1836C181.288 33.0365 181.69 32.7716 181.985 32.3891C182.289 31.9968 182.441 31.428 182.441 30.6826ZM194.208 25.3716V33.2571H200.534V34.8901H192.251V25.3716H194.208ZM205.81 25.3716H215.844V27.0046H205.81V25.3716ZM209.856 26.7987H211.813V34.8901H209.856V26.7987Z" fill="white"/>
<defs>
<clipPath id="clip0_20_1623">
<rect width="42.2709" height="42.2709" fill="white" transform="translate(109.89) rotate(45)"/>
</clipPath>
</defs>
</svg>
